<?xml version="1.0" encoding="UTF-8"?>
<svg id="Layer_2" data-name="Layer 2" xmlns="http://www.w3.org/2000/svg" viewBox="0 0 474.53 531.75">
  <defs>
    <style>
      .cls-1 {
        fill: #d82433;
      }

      .cls-2 {
        fill: #231f20;
      }
    </style>
  </defs>
  <g id="Layer_1-2" data-name="Layer 1">
    <g>
      <g>
        <g>
          <path d="m264.36,290.34c12.68-2.94,27.88,1.89,30.95,16.67,1.65,7.98.77,15.86-1.87,23.44-2.26,6.48-5.12,12.74-7.72,19.1-.03.08-.08.15-.12.23-1.89,3.91-1.58,4.43,2.75,4.43,16.73,0,33.46-.04,50.2-.02,7.19,0,14.26.79,21,3.52,13.31,5.39,19.39,16.74,16.58,30.86-2.1,10.56-8.6,17.65-17.69,22.7-9.44,5.24-19.68,7.3-30.41,7.31-14.38,0-28.76.09-43.14.01-2.75-.02-4.09.73-4.46,3.66-.63,5.1-1.8,10.12-2.49,15.21-.36,2.67-1.4,3.69-4.18,3.62-6.53-.17-13.07-.11-19.61.03-2.4.05-3.06-.73-2.62-3.06,1.94-10.45,3.8-20.91,5.65-31.38.44-2.49.73-5,1.11-7.5.24-1.58-.31-2.03-1.99-2.09-5.5-.21-9.85,1.59-14.05,5.35-13.01,11.65-27.62,20.97-44.05,27.05-8.96,3.32-18.27,5.16-27.96,3.52-9.9-1.67-16.46-8.31-17.85-18.81-1.56-11.79,1.46-22.81,6.39-33.42.06-.13.26-.19.71-.49-.28,2.51-.75,4.77-.74,7.04.01,3.46-.15,7.05.66,10.36,2.29,9.37,9.45,14.64,19.57,14.87,9.75.22,18.77-2.7,27.35-6.96,22.27-11.07,40.34-27.16,55.06-47.08,7.97-10.78,14.82-22.23,17.72-35.5,1.06-4.88,1.52-10.03,1.28-15.01-.39-8.49-5.38-14.19-13.48-16.68-.63-.19-1.24-.48-2.54-1Zm-1.11,106.21c1.44.19,2.18.36,2.92.37,14.37.1,28.74.22,43.11.26,9.06.03,18.13.21,27.17-.25,3.12-.16,6.46-1.56,9.14-3.26,3.89-2.47,5.05-6.71,4.05-11.08-.91-3.98-4.44-5.31-8.04-6.12-1.27-.29-2.59-.44-3.89-.44-16.29-.02-32.58,0-48.87-.02-1.69,0-2.75.58-3.43,2.18-2.73,6.37-7.57,10.73-13.59,13.9-2.64,1.39-5.29,2.76-8.56,4.46Z"/>
          <path class="cls-1" d="m263.21,345.97c-2.95,4.13-5.63,7.53-7.91,11.17-2.63,4.2-6.18,5.24-10.98,5.12-12.37-.31-24.75-.05-37.12-.05-6.31,0-12.51-.56-18.37-3.28-8.8-4.09-12.77-11.21-11.56-20.93,1.6-12.84,9.74-19.85,21.18-24,6.56-2.38,13.31-3.33,20.26-3.31,17.95.07,35.9.03,53.86.04,4.06,0,4.36.2,3.35,4.15-1.27,4.96-2.94,9.82-4.35,14.75-.7,2.45-2.21,3.12-4.65,3.1-14.2-.1-28.41-.09-42.61-.05-4.35.01-8.71.18-13.06.46-3.2.21-6.27.95-7.77,4.32-1.68,3.79-.09,6.85,3.99,7.57,1.36.24,2.78.26,4.17.27,16.2.07,32.41.11,48.61.18.65,0,1.31.2,2.96.47Z"/>
          <path class="cls-1" d="m237.25,376.74c-2.1,1.87-4.07,3.91-6.32,5.57-6.38,4.68-12.83,9.28-19.38,13.72-1.34.91-3.24,1.39-4.89,1.41-12.72.15-25.45.15-38.17.17-.83,0-1.66-.17-3.01-.33.65-1.01.96-1.69,1.44-2.2,5.37-5.71,10.7-11.46,16.22-17.03,1.03-1.04,2.84-1.81,4.3-1.83,15.95-.23,31.89-.28,47.84-.37.51,0,1.02.13,1.52.2.15.23.3.46.44.69Z"/>
          <path class="cls-1" d="m219.84,298.31c4.4-3.06,8.69-6.31,13.24-9.14,10.73-6.68,22.18-11.77,34.77-13.62,7.33-1.08,14.77-1.44,22.02.75,10.98,3.33,15.85,11.07,14.26,22.48-.19,1.34-.53,2.67-.91,4.49-.54-.72-.82-.94-.89-1.21-3.24-11.74-11.76-17.17-23.05-19.14-11.84-2.07-23.33-.24-34.32,4.21-8.43,3.42-16.58,7.54-24.86,11.35-.09-.06-.18-.11-.27-.17Z"/>
        </g>
        <path class="cls-1" d="m139.01,166.12c7.33,1.53,14.67,3.04,22,4.6,18.89,4.01,37.76,8.07,56.67,11.95,1.23.25,3.18-.46,4.04-1.4,4.26-4.69,8.16-9.73,12.45-14.4,1.3-1.42,3.36-2.67,5.23-2.95,15.58-2.27,31.19-4.3,46.79-6.36,1.27-.17,2.58-.02,4.9-.02-17.89,19.21-35.23,37.82-52.98,56.87,6.28,3.75,12.01,7.22,17.79,10.61,4.22,2.48,8.61,4.7,12.73,7.32,2.74,1.74,4.48,1.66,6.59-1.08,5.96-7.77,12.11-15.42,18.45-22.89,1.46-1.72,3.87-3.33,6.04-3.65,12.95-1.91,25.96-3.44,38.95-5.08,4.38-.56,8.76-1.09,14.36-1.79-6.33,7.15-11.83,13.34-17.3,19.56-9.7,11.03-19.41,22.04-29.02,33.15-2.57,2.97-5.31,4.49-9.47,4.46-25.43-.18-50.87-.11-76.3,0-2.77.01-4.68-.83-6.5-2.88-20.83-23.47-41.74-46.88-62.63-70.3-4.39-4.92-8.8-9.82-13.2-14.72.14-.33.28-.66.42-.99Z"/>
        <path class="cls-1" d="m132.84,167.74c4.52,5.1,4.57,5.14.68,10.09-19.62,24.99-39.24,49.97-58.94,74.89-.85,1.08-2.44,2.24-3.69,2.25-22.91.14-45.83.1-68.74.1-.39,0-.78-.11-2.14-.32,9.75-.98,18.54-1.86,27.33-2.74,13.56-1.36,27.13-2.64,40.67-4.19,1.57-.18,3.35-1.55,4.39-2.87,19.21-24.47,38.32-49.01,57.46-73.53.96-1.23,1.97-2.42,2.99-3.67Z"/>
        <path class="cls-1" d="m474.53,254.24c-1.12.08-2.24.24-3.35.24-22.77-.02-45.53-.1-68.3-.04-2.76,0-4.55-.84-6.39-2.94-12.81-14.63-25.78-29.12-38.7-43.66-1.04-1.17-2.02-2.39-3.16-3.74,1.27-1.38,2.41-2.62,4.54-4.93.98,1.52,1.67,2.96,2.69,4.12,12.01,13.57,24.1,27.07,36.09,40.67,1.87,2.12,3.83,3.14,6.73,3.39,23.29,2.05,46.55,4.32,69.83,6.51,0,.13,0,.25.01.38Z"/>
        <path class="cls-1" d="m338.84,193.92c-4.78,2.32-7.81.28-11.09-2.43-11.71-9.7-23.65-19.12-35.77-28.87,1.09-1.27,2.07-2.41,3.31-3.84,7.76,6.24,32.19,26.27,34.37,27.89,3.06,2.27,5.98,4.71,9.18,7.25Z"/>
        <path d="m121.11,230.48v-17.17h17.34c0,4.85.11,9.81-.11,14.77-.04.83-1.45,2.26-2.28,2.29-4.85.22-9.71.11-14.96.11Z"/>
        <path d="m138.14,254.91h-16.9v-17.13h16.9v17.13Z"/>
        <path d="m162.71,230.27h-16.95v-16.96h16.95v16.96Z"/>
        <path d="m145.73,237.78h16.99v17h-16.99v-17Z"/>
        <path d="m353.39,251.57v-9.75h10.26v9.75h-10.26Z"/>
        <path d="m353.45,236.48v-9.78h10.19v9.78h-10.19Z"/>
        <path d="m348.72,241.77v9.82h-9.78c-1.33-11.47-1.31-10.67,9.78-9.82Z"/>
        <path d="m348.63,236.57h-9.88v-9.88h9.88v9.88Z"/>
        <path d="m281.75,194.2v-6.5h6.51v6.5h-6.51Z"/>
        <path d="m298.68,187.75v6.53h-6.55v-6.53h6.55Z"/>
        <path d="m292,183.89v-6.49h6.56v6.49h-6.56Z"/>
        <path d="m288.3,177.39v6.53h-6.53v-6.53h6.53Z"/>
        <rect x="145.76" y="11.41" width="12.42" height="147.37"/>
        <rect x="162.71" y="11.41" width="12.42" height="147.37"/>
        <rect x="179.66" y="11.41" width="12.42" height="147.37"/>
        <polygon points="238.96 0 238.96 53.65 218.12 53.65 218.12 157.66 208.06 157.49 208.06 21.66 197.29 15.23 197.29 0 238.96 0"/>
        <polygon points="298.55 144.58 244.92 157.49 244.92 67.45 298.55 80.36 298.55 144.58"/>
        <polygon points="289.41 22.94 238.96 15.61 238.96 0 289.41 17.1 289.41 22.94"/>
        <rect x="226.63" y="61.11" width="12.33" height="96.55"/>
        <path d="m91.84,295.16c-19.8,29.49-35.04,69.29-16,102.54,22.81,39.75,82.83,59.76,124.64,73.32,12.15,3.84,24.44,7.39,36.77,11.23-25.74-1.34-51.36-5.33-76.42-12.38-37.09-10.63-78.85-29.7-97.51-65.48-19.8-37.91-1.29-82.49,28.52-109.23h0Z"/>
        <path d="m51.97,288.98c-13.36,30.87-23.11,63-20.31,96.47,3.97,49.96,43.83,80.24,86.93,99.34,46.26,20.89,96.84,31.79,145.79,45.37-15.28,1.5-30.6,1.86-45.92,1.41-70.18-2.18-160.82-22.88-197.54-89.41-12.76-23.44-15.74-51.33-10.21-77.16,6.14-28.24,20.85-55.6,41.25-76.01h0Z"/>
      </g>
      <g>
        <path class="cls-2" d="m300.21,465.73c-2.93-1.42-5.18-3.42-6.75-5.99s-2.35-5.54-2.35-8.9c0-4.44,1.02-8.44,3.05-12.01,2.03-3.56,4.9-6.37,8.59-8.43,3.69-2.05,7.93-3.08,12.71-3.08,3.51,0,6.61.6,9.29,1.79,2.69,1.19,4.72,2.91,6.1,5.15l-6.55,5.37c-2.09-3.06-5.24-4.59-9.46-4.59-2.87,0-5.41.67-7.61,2.02-2.2,1.34-3.91,3.17-5.12,5.49-1.21,2.31-1.82,4.89-1.82,7.73,0,3.02.96,5.42,2.88,7.19,1.92,1.77,4.62,2.66,8.09,2.66,4.14,0,7.61-1.51,10.41-4.53l5.37,5.49c-3.88,4.52-9.41,6.77-16.57,6.77-3.92,0-7.34-.71-10.27-2.13Z"/>
        <path class="cls-2" d="m336.35,437.07h8.68l-5.99,30.12h-8.68l5.99-30.12Zm2.16-5.51c-.95-.88-1.43-1.95-1.43-3.22,0-1.49.53-2.73,1.6-3.72,1.06-.99,2.45-1.48,4.17-1.48,1.53,0,2.77.42,3.72,1.26s1.43,1.88,1.43,3.11c0,1.61-.54,2.9-1.62,3.89-1.08.99-2.48,1.48-4.2,1.48-1.49,0-2.72-.44-3.67-1.32Z"/>
        <path class="cls-2" d="m359.02,456.55c-.08.3-.11.71-.11,1.23,0,1.94,1.06,2.91,3.19,2.91,1.16,0,2.33-.35,3.53-1.06l1.29,6.21c-1.94,1.19-4.44,1.79-7.5,1.79-2.84,0-5.11-.75-6.83-2.24-1.72-1.49-2.58-3.55-2.58-6.16,0-.75.09-1.62.28-2.63l2.41-12.15h-4.65l1.34-6.72h4.65l1.46-7.33h8.73l-1.46,7.33h7.5l-1.34,6.72h-7.5l-2.41,12.09Z"/>
        <path class="cls-2" d="m406.84,437.07l-20.04,32.14c-2.17,3.51-4.26,5.93-6.3,7.28-2.03,1.34-4.53,2.02-7.47,2.02-1.57,0-3.11-.24-4.62-.73-1.51-.49-2.7-1.12-3.56-1.9l4.03-6.27c1.34,1.23,2.95,1.85,4.81,1.85,1.12,0,2.09-.28,2.91-.84.82-.56,1.66-1.51,2.52-2.85l.28-.5-6.94-30.18h8.73l4.48,20.49,12.54-20.49h8.62Z"/>
      </g>
    </g>
  </g>
</svg>